<svg width="1216" height="978" viewBox="0 0 1216 978" fill="none" xmlns="http://www.w3.org/2000/svg">
<g id="Xbox">
<g id="x1" filter="url(#filter0_ddd_2_38)">
<path d="M72.5 645H18L129.5 800L8 969H63.5L158 838L252.5 969H308L186 800L298.5 645H243L158 762.5L72.5 645Z" fill="#FCFBFB"/>
<path d="M72.5 645H18L129.5 800L8 969H63.5L158 838L252.5 969H308L186 800L298.5 645H243L158 762.5L72.5 645Z" stroke="black"/>
</g>
<g id="x2" filter="url(#filter1_ddd_2_38)">
<path d="M972.5 645H918L1029.5 800L908 969H963.5L1058 838L1152.5 969H1208L1086 800L1198.5 645H1143L1058 762.5L972.5 645Z" fill="#FCFBFB"/>
<path d="M972.5 645H918L1029.5 800L908 969H963.5L1058 838L1152.5 969H1208L1086 800L1198.5 645H1143L1058 762.5L972.5 645Z" stroke="black"/>
</g>
<g id="o" filter="url(#filter2_ddd_2_38)">
<path fill-rule="evenodd" clip-rule="evenodd" d="M765.665 630C696.834 638.166 668.899 652.918 637.165 696.5C596.656 779.246 602.071 826.597 630.665 891.5C668.712 947.794 698.034 965.179 765.665 969C830.267 969.078 861.341 952.024 907.665 891.5C935.077 813.227 932.807 770.538 897.665 696.5C859.557 648.574 830.144 634.846 765.665 630ZM669.665 743.5C692.802 697.92 712.175 681.024 765.665 676.5C813.627 680.23 837.488 690.299 866.665 743.5C875.832 783.952 877.055 806.616 869.165 847C847.138 897.176 830.744 920.887 765.665 924C712.506 919.573 689.16 905.172 665.165 847C659.102 808.604 657.699 786.56 669.665 743.5Z" fill="#FCFBFB"/>
<path fill-rule="evenodd" clip-rule="evenodd" d="M765.665 630C696.834 638.166 668.899 652.918 637.165 696.5C596.656 779.246 602.071 826.597 630.665 891.5C668.712 947.794 698.034 965.179 765.665 969C830.267 969.078 861.341 952.024 907.665 891.5C935.077 813.227 932.807 770.538 897.665 696.5C859.557 648.574 830.144 634.846 765.665 630ZM669.665 743.5C692.802 697.92 712.175 681.024 765.665 676.5C813.627 680.23 837.488 690.299 866.665 743.5C875.832 783.952 877.055 806.616 869.165 847C847.138 897.176 830.744 920.887 765.665 924C712.506 919.573 689.16 905.172 665.165 847C659.102 808.604 657.699 786.56 669.665 743.5Z" stroke="black"/>
</g>
<g id="b" filter="url(#filter3_ddd_2_38)">
<path fill-rule="evenodd" clip-rule="evenodd" d="M305.5 782.5L276 824.5H348V968H506C568.122 962.982 604.214 940.671 608 878.5C605.103 834.77 590.443 819.383 553.5 799.5C584.059 777.611 594.624 761.468 594.5 721.5C581.847 664.184 557.616 653.514 506 645H348V782.5H305.5ZM396.5 687.5V782.5L499.5 783.5C530.389 777.56 542.325 769.063 546 737C545.333 707.607 535.976 696.295 499.5 687.5H396.5ZM396.5 925.5V824.5H511C543.808 831.752 555.61 841.593 558 875.5C556.65 907.429 544.451 916.985 511 925.5H396.5Z" fill="#FCFBFB"/>
<path fill-rule="evenodd" clip-rule="evenodd" d="M305.5 782.5L276 824.5H348V968H506C568.122 962.982 604.214 940.671 608 878.5C605.103 834.77 590.443 819.383 553.5 799.5C584.059 777.611 594.624 761.468 594.5 721.5C581.847 664.184 557.616 653.514 506 645H348V782.5H305.5ZM396.5 687.5V782.5L499.5 783.5C530.389 777.56 542.325 769.063 546 737C545.333 707.607 535.976 696.295 499.5 687.5H396.5ZM396.5 925.5V824.5H511C543.808 831.752 555.61 841.593 558 875.5C556.65 907.429 544.451 916.985 511 925.5H396.5Z" stroke="black"/>
</g>
<g id="logo" filter="url(#filter4_ddd_2_38)">
<path d="M750 53C706.242 49.0941 675.047 57.691 608 91.5C547.285 58.2701 516.651 50.2421 467.5 53C508.091 25.6576 539.561 17.0012 608 11C665.597 12.8279 696.554 22.9481 750 53Z" fill="#FCFBFB"/>
<path d="M422.5 86.5C465.777 97.9421 490.237 117.238 534 160.5C398.17 346.982 391.156 387.46 395 444.5C364.089 402.954 348.956 376.279 339 302.5C338.922 199.169 360.201 153.614 422.5 86.5Z" fill="#FCFBFB"/>
<path d="M789.5 86.5C749.187 99.3315 725.756 116.959 683 160.5C803.682 324.338 824.741 378.827 823 444.5C853.636 396.467 868.482 367.726 877 302.5C878.773 192.996 854.656 149.173 789.5 86.5Z" fill="#FCFBFB"/>
<path d="M785 432.5C737.263 348.084 698.587 303.304 608 228C529.698 289.152 490.341 332.7 431 432.5C416.29 466.409 417.849 484.107 463 510C511.972 536.943 541.775 548.638 608 550.5C671.948 548.729 707.362 540.009 769 497.5C795.113 482.982 797.983 468.403 785 432.5Z" fill="#FCFBFB"/>
<path d="M750 53C706.242 49.0941 675.047 57.691 608 91.5C547.285 58.2701 516.651 50.2421 467.5 53C508.091 25.6576 539.561 17.0012 608 11C665.597 12.8279 696.554 22.9481 750 53Z" stroke="black"/>
<path d="M422.5 86.5C465.777 97.9421 490.237 117.238 534 160.5C398.17 346.982 391.156 387.46 395 444.5C364.089 402.954 348.956 376.279 339 302.5C338.922 199.169 360.201 153.614 422.5 86.5Z" stroke="black"/>
<path d="M789.5 86.5C749.187 99.3315 725.756 116.959 683 160.5C803.682 324.338 824.741 378.827 823 444.5C853.636 396.467 868.482 367.726 877 302.5C878.773 192.996 854.656 149.173 789.5 86.5Z" stroke="black"/>
<path d="M785 432.5C737.263 348.084 698.587 303.304 608 228C529.698 289.152 490.341 332.7 431 432.5C416.29 466.409 417.849 484.107 463 510C511.972 536.943 541.775 548.638 608 550.5C671.948 548.729 707.362 540.009 769 497.5C795.113 482.982 797.983 468.403 785 432.5Z" stroke="black"/>
</g>
</g>
<defs>
<filter id="filter0_ddd_2_38" x="0.0246582" y="634.5" width="315.953" height="343" filterUnits="userSpaceOnUse" color-interpolation-filters="sRGB">
<feFlood flood-opacity="0" result="BackgroundImageFix"/>
<feColorMatrix in="SourceAlpha" type="matrix" values="0 0 0 0 0 0 0 0 0 0 0 0 0 0 0 0 0 0 127 0" result="hardAlpha"/>
<feOffset dy="-3"/>
<feGaussianBlur stdDeviation="3.5"/>
<feComposite in2="hardAlpha" operator="out"/>
<feColorMatrix type="matrix" values="0 0 0 0 0.729412 0 0 0 0 0.729412 0 0 0 0 0.729412 0 0 0 0.3 0"/>
<feBlend mode="normal" in2="BackgroundImageFix" result="effect1_dropShadow_2_38"/>
<feColorMatrix in="SourceAlpha" type="matrix" values="0 0 0 0 0 0 0 0 0 0 0 0 0 0 0 0 0 0 127 0" result="hardAlpha"/>
<feOffset dy="4"/>
<feGaussianBlur stdDeviation="2"/>
<feComposite in2="hardAlpha" operator="out"/>
<feColorMatrix type="matrix" values="0 0 0 0 0 0 0 0 0 0 0 0 0 0 0 0 0 0 0.25 0"/>
<feBlend mode="normal" in2="effect1_dropShadow_2_38" result="effect2_dropShadow_2_38"/>
<feColorMatrix in="SourceAlpha" type="matrix" values="0 0 0 0 0 0 0 0 0 0 0 0 0 0 0 0 0 0 127 0" result="hardAlpha"/>
<feOffset dy="4"/>
<feGaussianBlur stdDeviation="2"/>
<feComposite in2="hardAlpha" operator="out"/>
<feColorMatrix type="matrix" values="0 0 0 0 0 0 0 0 0 0 0 0 0 0 0 0 0 0 0.25 0"/>
<feBlend mode="normal" in2="effect2_dropShadow_2_38" result="effect3_dropShadow_2_38"/>
<feBlend mode="normal" in="SourceGraphic" in2="effect3_dropShadow_2_38" result="shape"/>
</filter>
<filter id="filter1_ddd_2_38" x="900.025" y="634.5" width="315.953" height="343" filterUnits="userSpaceOnUse" color-interpolation-filters="sRGB">
<feFlood flood-opacity="0" result="BackgroundImageFix"/>
<feColorMatrix in="SourceAlpha" type="matrix" values="0 0 0 0 0 0 0 0 0 0 0 0 0 0 0 0 0 0 127 0" result="hardAlpha"/>
<feOffset dy="-3"/>
<feGaussianBlur stdDeviation="3.5"/>
<feComposite in2="hardAlpha" operator="out"/>
<feColorMatrix type="matrix" values="0 0 0 0 0.729412 0 0 0 0 0.729412 0 0 0 0 0.729412 0 0 0 0.3 0"/>
<feBlend mode="normal" in2="BackgroundImageFix" result="effect1_dropShadow_2_38"/>
<feColorMatrix in="SourceAlpha" type="matrix" values="0 0 0 0 0 0 0 0 0 0 0 0 0 0 0 0 0 0 127 0" result="hardAlpha"/>
<feOffset dy="4"/>
<feGaussianBlur stdDeviation="2"/>
<feComposite in2="hardAlpha" operator="out"/>
<feColorMatrix type="matrix" values="0 0 0 0 0 0 0 0 0 0 0 0 0 0 0 0 0 0 0.25 0"/>
<feBlend mode="normal" in2="effect1_dropShadow_2_38" result="effect2_dropShadow_2_38"/>
<feColorMatrix in="SourceAlpha" type="matrix" values="0 0 0 0 0 0 0 0 0 0 0 0 0 0 0 0 0 0 127 0" result="hardAlpha"/>
<feOffset dy="4"/>
<feGaussianBlur stdDeviation="2"/>
<feComposite in2="hardAlpha" operator="out"/>
<feColorMatrix type="matrix" values="0 0 0 0 0 0 0 0 0 0 0 0 0 0 0 0 0 0 0.25 0"/>
<feBlend mode="normal" in2="effect2_dropShadow_2_38" result="effect3_dropShadow_2_38"/>
<feBlend mode="normal" in="SourceGraphic" in2="effect3_dropShadow_2_38" result="shape"/>
</filter>
<filter id="filter2_ddd_2_38" x="600.5" y="619.498" width="333.349" height="358.002" filterUnits="userSpaceOnUse" color-interpolation-filters="sRGB">
<feFlood flood-opacity="0" result="BackgroundImageFix"/>
<feColorMatrix in="SourceAlpha" type="matrix" values="0 0 0 0 0 0 0 0 0 0 0 0 0 0 0 0 0 0 127 0" result="hardAlpha"/>
<feOffset dy="-3"/>
<feGaussianBlur stdDeviation="3.5"/>
<feComposite in2="hardAlpha" operator="out"/>
<feColorMatrix type="matrix" values="0 0 0 0 0.729412 0 0 0 0 0.729412 0 0 0 0 0.729412 0 0 0 0.3 0"/>
<feBlend mode="normal" in2="BackgroundImageFix" result="effect1_dropShadow_2_38"/>
<feColorMatrix in="SourceAlpha" type="matrix" values="0 0 0 0 0 0 0 0 0 0 0 0 0 0 0 0 0 0 127 0" result="hardAlpha"/>
<feOffset dy="4"/>
<feGaussianBlur stdDeviation="2"/>
<feComposite in2="hardAlpha" operator="out"/>
<feColorMatrix type="matrix" values="0 0 0 0 0 0 0 0 0 0 0 0 0 0 0 0 0 0 0.25 0"/>
<feBlend mode="normal" in2="effect1_dropShadow_2_38" result="effect2_dropShadow_2_38"/>
<feColorMatrix in="SourceAlpha" type="matrix" values="0 0 0 0 0 0 0 0 0 0 0 0 0 0 0 0 0 0 127 0" result="hardAlpha"/>
<feOffset dy="4"/>
<feGaussianBlur stdDeviation="2"/>
<feComposite in2="hardAlpha" operator="out"/>
<feColorMatrix type="matrix" values="0 0 0 0 0 0 0 0 0 0 0 0 0 0 0 0 0 0 0.25 0"/>
<feBlend mode="normal" in2="effect2_dropShadow_2_38" result="effect3_dropShadow_2_38"/>
<feBlend mode="normal" in="SourceGraphic" in2="effect3_dropShadow_2_38" result="shape"/>
</filter>
<filter id="filter3_ddd_2_38" x="268.038" y="634.5" width="347.463" height="342" filterUnits="userSpaceOnUse" color-interpolation-filters="sRGB">
<feFlood flood-opacity="0" result="BackgroundImageFix"/>
<feColorMatrix in="SourceAlpha" type="matrix" values="0 0 0 0 0 0 0 0 0 0 0 0 0 0 0 0 0 0 127 0" result="hardAlpha"/>
<feOffset dy="-3"/>
<feGaussianBlur stdDeviation="3.5"/>
<feComposite in2="hardAlpha" operator="out"/>
<feColorMatrix type="matrix" values="0 0 0 0 0.729412 0 0 0 0 0.729412 0 0 0 0 0.729412 0 0 0 0.3 0"/>
<feBlend mode="normal" in2="BackgroundImageFix" result="effect1_dropShadow_2_38"/>
<feColorMatrix in="SourceAlpha" type="matrix" values="0 0 0 0 0 0 0 0 0 0 0 0 0 0 0 0 0 0 127 0" result="hardAlpha"/>
<feOffset dy="4"/>
<feGaussianBlur stdDeviation="2"/>
<feComposite in2="hardAlpha" operator="out"/>
<feColorMatrix type="matrix" values="0 0 0 0 0 0 0 0 0 0 0 0 0 0 0 0 0 0 0.25 0"/>
<feBlend mode="normal" in2="effect1_dropShadow_2_38" result="effect2_dropShadow_2_38"/>
<feColorMatrix in="SourceAlpha" type="matrix" values="0 0 0 0 0 0 0 0 0 0 0 0 0 0 0 0 0 0 127 0" result="hardAlpha"/>
<feOffset dy="4"/>
<feGaussianBlur stdDeviation="2"/>
<feComposite in2="hardAlpha" operator="out"/>
<feColorMatrix type="matrix" values="0 0 0 0 0 0 0 0 0 0 0 0 0 0 0 0 0 0 0.25 0"/>
<feBlend mode="normal" in2="effect2_dropShadow_2_38" result="effect3_dropShadow_2_38"/>
<feBlend mode="normal" in="SourceGraphic" in2="effect3_dropShadow_2_38" result="shape"/>
</filter>
<filter id="filter4_ddd_2_38" x="331.5" y="0.499306" width="553.091" height="558.501" filterUnits="userSpaceOnUse" color-interpolation-filters="sRGB">
<feFlood flood-opacity="0" result="BackgroundImageFix"/>
<feColorMatrix in="SourceAlpha" type="matrix" values="0 0 0 0 0 0 0 0 0 0 0 0 0 0 0 0 0 0 127 0" result="hardAlpha"/>
<feOffset dy="-3"/>
<feGaussianBlur stdDeviation="3.5"/>
<feComposite in2="hardAlpha" operator="out"/>
<feColorMatrix type="matrix" values="0 0 0 0 0.729412 0 0 0 0 0.729412 0 0 0 0 0.729412 0 0 0 0.3 0"/>
<feBlend mode="normal" in2="BackgroundImageFix" result="effect1_dropShadow_2_38"/>
<feColorMatrix in="SourceAlpha" type="matrix" values="0 0 0 0 0 0 0 0 0 0 0 0 0 0 0 0 0 0 127 0" result="hardAlpha"/>
<feOffset dy="4"/>
<feGaussianBlur stdDeviation="2"/>
<feComposite in2="hardAlpha" operator="out"/>
<feColorMatrix type="matrix" values="0 0 0 0 0 0 0 0 0 0 0 0 0 0 0 0 0 0 0.25 0"/>
<feBlend mode="normal" in2="effect1_dropShadow_2_38" result="effect2_dropShadow_2_38"/>
<feColorMatrix in="SourceAlpha" type="matrix" values="0 0 0 0 0 0 0 0 0 0 0 0 0 0 0 0 0 0 127 0" result="hardAlpha"/>
<feOffset dy="4"/>
<feGaussianBlur stdDeviation="2"/>
<feComposite in2="hardAlpha" operator="out"/>
<feColorMatrix type="matrix" values="0 0 0 0 0 0 0 0 0 0 0 0 0 0 0 0 0 0 0.25 0"/>
<feBlend mode="normal" in2="effect2_dropShadow_2_38" result="effect3_dropShadow_2_38"/>
<feBlend mode="normal" in="SourceGraphic" in2="effect3_dropShadow_2_38" result="shape"/>
</filter>
</defs>
</svg>
